<?xml version="1.0" encoding="utf-8"?>
<!-- Generator: Adobe Illustrator 25.0.1, SVG Export Plug-In . SVG Version: 6.00 Build 0)  -->
<svg version="1.1" id="Layer_1" xmlns="http://www.w3.org/2000/svg" xmlns:xlink="http://www.w3.org/1999/xlink" x="0px" y="0px"
	 viewBox="0 0 284 77" style="enable-background:new 0 0 284 77;" xml:space="preserve">
<style type="text/css">
	.st0{fill:#131011;}
	.st1{fill:#46413D;}
	.st2{fill:#736966;}
	.st3{fill:#A79B95;}
</style>
<path class="st0" d="M17,71.2c-2.1,0-3.8-1.7-3.8-3.8c0,0,0-0.1,0-0.1V9.6c0-2.1,1.7-3.8,3.8-3.8c0,0,0.1,0,0.1,0h21
	c6.9,0,12.2,1.5,15.9,4.4s5.5,7.2,5.5,12.8c0,7-3.8,11.8-11.3,14.3c4.9,1.1,8.4,3,10.7,5.9c2.3,2.8,3.5,6.4,3.4,10
	c0,6-1.9,10.5-5.8,13.6c-3.8,3-9.8,4.5-17.8,4.6L17,71.2z M38.3,35c4.3,0,7.6-1.1,10.2-3.2s3.8-5,3.8-8.5c0-7.6-4.8-11.3-14.3-11.3
	H20.1V35L38.3,35z M38.5,65.1c5.9,0,10.1-1,12.7-2.9c2.6-1.9,3.9-5,3.9-9.4c0-7.8-5.4-11.7-16.2-11.7H20.1v24H38.5z"/>
<path class="st1" d="M95.2,71.6c-2,0-2.9-1-2.9-3.1v-60c0-2.1,1-3.1,2.9-3.1h0.9c2,0,3,1,3,3.1v60c0,2.1-1,3.1-3,3.1L95.2,71.6z"/>
<path class="st2" d="M162.5,72.5c-4.5,0.1-9-0.8-13.2-2.5c-3.9-1.6-7.4-3.9-10.3-6.9c-2.9-3.1-5.2-6.7-6.7-10.7
	c-1.6-4.4-2.4-9-2.4-13.7c-0.1-4.7,0.8-9.4,2.4-13.8c1.5-4,3.8-7.7,6.7-10.8c2.9-3,6.4-5.4,10.3-7c8.5-3.4,17.9-3.4,26.4,0
	c3.9,1.6,7.4,3.9,10.3,6.9c2.9,3.1,5.2,6.7,6.7,10.7c1.6,4.4,2.4,9.1,2.4,13.8c0.1,4.7-0.7,9.4-2.4,13.8c-1.5,4-3.8,7.7-6.7,10.8
	c-2.9,3-6.5,5.4-10.4,7C171.5,71.7,167,72.5,162.5,72.5z M162.7,66.5c3.5,0,7-0.7,10.2-2c3.1-1.3,5.8-3.3,8-5.7
	c2.3-2.6,4.1-5.6,5.3-8.8c1.3-3.6,1.9-7.4,1.9-11.3c0-3.8-0.6-7.6-1.9-11.2c-1.2-3.3-3-6.3-5.3-8.9c-2.3-2.5-5-4.5-8.1-5.9
	c-6.5-2.8-13.9-2.8-20.5-0.1c-3.1,1.3-5.8,3.3-8,5.8c-2.3,2.6-4.1,5.6-5.3,8.8c-1.3,3.6-1.9,7.4-1.9,11.3c0,3.8,0.6,7.7,1.9,11.3
	c1.2,3.3,3,6.3,5.3,8.9c2.3,2.5,5,4.5,8.1,5.8C155.7,65.8,159.2,66.5,162.7,66.5z"/>
<path class="st3" d="M244.4,33.4c1.1-1.6,2.2-2.9,3.1-4.1l3.1-4.2c1.2-1.6,2.4-3.2,3.6-4.8c2.8-3.8,6.1-8.2,9.7-13.1
	c0.5-0.7,1-1.2,1.7-1.7c0.5-0.3,1-0.4,1.6-0.5c0.6,0,1.1,0.1,1.6,0.5c0.4,0.3,0.8,0.6,1.2,1c0.3,0.3,0.5,0.7,0.7,1.1
	c0.1,0.3,0.1,0.6,0,0.7l-22.6,30l22.6,29.9c0.1,0.1,0.1,0.4,0,0.7c-0.2,0.4-0.4,0.7-0.7,1.1c-0.3,0.4-0.8,0.8-1.2,1
	c-0.5,0.3-1.2,0.5-1.8,0.5c-0.7,0-1.4-0.2-2-0.5c-0.7-0.4-1.3-0.9-1.8-1.5l-19.2-26.5l-19.8,26.7c-0.5,0.7-1,1.2-1.7,1.7
	c-0.5,0.3-1.1,0.4-1.6,0.5c-0.6,0-1.1-0.1-1.6-0.5c-0.4-0.3-0.8-0.6-1.2-1c-0.3-0.3-0.5-0.7-0.6-1.1c-0.1-0.2-0.1-0.5,0-0.7
	l22.8-30.3l-22-29.6c-0.1-0.2,0-0.5,0-0.7c0.1-0.4,0.3-0.8,0.6-1.1c0.3-0.4,0.8-0.7,1.2-1c0.5-0.3,1.2-0.5,1.8-0.5
	c0.7,0,1.4,0.2,2.1,0.5c0.7,0.3,1.3,0.9,1.8,1.5L244.4,33.4z"/>
</svg>
